<svg width="32" height="32" viewBox="0 0 32 32" fill="none" xmlns="http://www.w3.org/2000/svg">
<path d="M16.0002 17.3333C16.7365 17.3333 17.3335 16.7364 17.3335 16C17.3335 15.2636 16.7365 14.6667 16.0002 14.6667C15.2638 14.6667 14.6668 15.2636 14.6668 16C14.6668 16.7364 15.2638 17.3333 16.0002 17.3333Z" fill="#1D1D1D"/>
<path d="M25.3335 17.3333C26.0699 17.3333 26.6668 16.7364 26.6668 16C26.6668 15.2636 26.0699 14.6667 25.3335 14.6667C24.5971 14.6667 24.0002 15.2636 24.0002 16C24.0002 16.7364 24.5971 17.3333 25.3335 17.3333Z" fill="#1D1D1D"/>
<path d="M6.66683 17.3333C7.40321 17.3333 8.00016 16.7364 8.00016 16C8.00016 15.2636 7.40321 14.6667 6.66683 14.6667C5.93045 14.6667 5.3335 15.2636 5.3335 16C5.3335 16.7364 5.93045 17.3333 6.66683 17.3333Z" fill="#1D1D1D"/>
<path d="M16.0002 17.3333C16.7365 17.3333 17.3335 16.7364 17.3335 16C17.3335 15.2636 16.7365 14.6667 16.0002 14.6667C15.2638 14.6667 14.6668 15.2636 14.6668 16C14.6668 16.7364 15.2638 17.3333 16.0002 17.3333Z" stroke="#1D1D1D" stroke-width="1.5" stroke-linecap="round" stroke-linejoin="round"/>
<path d="M25.3335 17.3333C26.0699 17.3333 26.6668 16.7364 26.6668 16C26.6668 15.2636 26.0699 14.6667 25.3335 14.6667C24.5971 14.6667 24.0002 15.2636 24.0002 16C24.0002 16.7364 24.5971 17.3333 25.3335 17.3333Z" stroke="#1D1D1D" stroke-width="1.5" stroke-linecap="round" stroke-linejoin="round"/>
<path d="M6.66683 17.3333C7.40321 17.3333 8.00016 16.7364 8.00016 16C8.00016 15.2636 7.40321 14.6667 6.66683 14.6667C5.93045 14.6667 5.3335 15.2636 5.3335 16C5.3335 16.7364 5.93045 17.3333 6.66683 17.3333Z" stroke="#1D1D1D" stroke-width="1.5" stroke-linecap="round" stroke-linejoin="round"/>
</svg>
