<svg width="37" height="36" viewBox="0 0 37 36" fill="none" xmlns="http://www.w3.org/2000/svg">
<g clip-path="url(#clip0_2732_55)">
<g clip-path="url(#clip1_2732_55)">
<path d="M18.41 36C28.3511 36 36.41 27.9411 36.41 18C36.41 8.05887 28.3511 0 18.41 0C8.46888 0 0.410004 8.05887 0.410004 18C0.410004 27.9411 8.46888 36 18.41 36Z" fill="#12619a"/>
<path d="M27.3975 18.285C27.3094 18.1039 27.3094 17.8961 27.3975 17.7151L28.2138 16.0365C28.6682 15.1019 28.3081 13.988 27.394 13.5004L25.7522 12.6247C25.575 12.5303 25.4536 12.3622 25.4189 12.1637L25.0978 10.3234C24.919 9.2988 23.9762 8.61027 22.9517 8.75598L21.1114 9.01766C20.9127 9.04584 20.7163 8.98165 20.5722 8.84153L19.2364 7.54251C18.4926 6.81918 17.3274 6.81914 16.5836 7.54251L15.2478 8.84166C15.1036 8.98182 14.9072 9.04589 14.7086 9.01778L12.8683 8.75611C11.8435 8.61032 10.901 9.29893 10.7222 10.3235L10.4011 12.1637C10.3664 12.3623 10.245 12.5303 10.0679 12.6248L8.42605 13.5005C7.5119 13.988 7.15182 15.102 7.60629 16.0366L8.4225 17.7152C8.51055 17.8963 8.51055 18.104 8.4225 18.285L7.60624 19.9636C7.15178 20.8982 7.51186 22.0121 8.42601 22.4997L10.0678 23.3754C10.245 23.4698 10.3664 23.6379 10.4011 23.8364L10.7222 25.6767C10.885 26.6094 11.6806 27.2636 12.595 27.2635C12.6851 27.2635 12.7765 27.2571 12.8684 27.2441L14.7087 26.9824C14.9071 26.9541 15.1037 27.0184 15.2478 27.1585L16.5836 28.4575C16.9556 28.8192 17.4327 29 17.91 29C18.3872 29 18.8646 28.8191 19.2364 28.4575L20.5722 27.1585C20.7164 27.0184 20.9128 26.9544 21.1114 26.9824L22.9517 27.2441C23.9766 27.3898 24.919 26.7012 25.0978 25.6766L25.419 23.8364C25.4536 23.6379 25.5751 23.4699 25.7522 23.3754L27.394 22.4997C28.3081 22.0122 28.6682 20.8981 28.2138 19.9635L27.3975 18.285ZM26.8024 21.3788L25.1605 22.2545C24.6371 22.5337 24.2781 23.0303 24.1757 23.6171L23.8546 25.4574C23.7941 25.804 23.4753 26.0369 23.1285 25.9877L21.2882 25.726C20.7013 25.6424 20.1206 25.8323 19.6946 26.2465L18.3587 27.5454C18.1071 27.7901 17.7129 27.7901 17.4612 27.5454L16.1254 26.2464C15.7654 25.8964 15.2948 25.7067 14.8035 25.7067C14.7134 25.7067 14.6227 25.713 14.5318 25.7259L12.6915 25.9876C12.345 26.0369 12.0259 25.804 11.9654 25.4573L11.6443 23.617C11.5419 23.0302 11.1829 22.5336 10.6594 22.2544L9.01755 21.3787C8.70825 21.2138 8.58643 20.8369 8.74018 20.5207L9.55644 18.8421C9.81667 18.3069 9.81667 17.6931 9.55644 17.1579L8.74018 15.4793C8.58643 15.1631 8.70825 14.7862 9.01755 14.6213L10.6594 13.7456C11.1828 13.4663 11.5419 12.9697 11.6442 12.3829L11.9653 10.5427C12.0259 10.196 12.3446 9.96313 12.6914 10.0124L14.5317 10.274C15.1184 10.3575 15.6994 10.1677 16.1253 9.75357L17.4612 8.45456C17.7128 8.20989 18.107 8.20989 18.3587 8.45456L19.6945 9.75357C20.1205 10.1678 20.7013 10.3575 21.2881 10.274L23.1284 10.0124C23.4749 9.96309 23.794 10.196 23.8545 10.5427L24.1756 12.383C24.278 12.9697 24.637 13.4664 25.1605 13.7456L26.8023 14.6213C27.1116 14.7862 27.2334 15.1631 27.0797 15.4793L26.2634 17.1578C26.0032 17.693 26.0032 18.3069 26.2634 18.8421L27.0797 20.5206C27.2335 20.8369 27.1117 21.2138 26.8024 21.3788Z" fill="#ffffff"/>
<path d="M22.5216 13.3644C22.2751 13.1167 21.8755 13.1167 21.629 13.3644L13.2985 21.7385C13.052 21.9862 13.052 22.388 13.2985 22.6357C13.4217 22.7596 13.5832 22.8215 13.7447 22.8215C13.9062 22.8215 14.0678 22.7596 14.191 22.6357L22.5215 14.2617C22.7681 14.0139 22.7681 13.6122 22.5216 13.3644Z" fill="#ffffff"/>
<path d="M15.3854 12.2903C14.1094 12.2903 13.0713 13.3339 13.0713 14.6165C13.0713 15.8992 14.1094 16.9428 15.3854 16.9428C16.6614 16.9428 17.6996 15.8992 17.6996 14.6165C17.6996 13.3339 16.6614 12.2903 15.3854 12.2903ZM15.3854 15.6739C14.8054 15.6739 14.3336 15.1996 14.3336 14.6165C14.3336 14.0335 14.8054 13.5591 15.3854 13.5591C15.9654 13.5591 16.4373 14.0335 16.4373 14.6165C16.4373 15.1996 15.9654 15.6739 15.3854 15.6739Z" fill="#ffffff"/>
<path d="M20.4345 19.0575C19.1585 19.0575 18.1203 20.1011 18.1203 21.3838C18.1203 22.6664 19.1585 23.71 20.4345 23.71C21.7105 23.71 22.7487 22.6664 22.7487 21.3838C22.7487 20.1011 21.7105 19.0575 20.4345 19.0575ZM20.4345 22.4411C19.8545 22.4411 19.3826 21.9668 19.3826 21.3838C19.3826 20.8007 19.8544 20.3264 20.4345 20.3264C21.0145 20.3264 21.4864 20.8007 21.4864 21.3838C21.4864 21.9668 21.0145 22.4411 20.4345 22.4411Z" fill="#ffffff"/>
</g>
</g>
<defs>
<clipPath id="clip0_2732_55">
<rect width="36" height="36" fill="" transform="translate(0.410004)"/>
</clipPath>
<clipPath id="clip1_2732_55">
<rect width="36" height="36" fill="" transform="translate(0.410004)"/>
</clipPath>
</defs>
</svg>
