<svg width="37" height="36" viewBox="0 0 37 36" fill="none" xmlns="http://www.w3.org/2000/svg">
<g clip-path="url(#clip0_2732_64)">
<g clip-path="url(#clip1_2732_64)">
<path d="M18.83 36C28.7711 36 36.83 27.9411 36.83 18C36.83 8.05887 28.7711 0 18.83 0C8.88889 0 0.830017 8.05887 0.830017 18C0.830017 27.9411 8.88889 36 18.83 36Z" fill="#12619a"/>
<path fill-rule="evenodd" clip-rule="evenodd" d="M23.9167 11.6188C22.3775 13.1572 19.7454 12.068 19.7454 9.89046V8.2H17.9146V9.89088C17.9146 12.0684 15.2825 13.1576 13.7433 11.6192L12.5477 10.4233L11.2532 11.7177L12.4483 12.9129C12.4483 12.9128 12.4484 12.9129 12.4483 12.9129C13.9884 14.4525 12.8968 17.0846 10.7205 17.0846H9.03002V18.9154H10.7205C12.8977 18.9154 13.9875 21.5479 12.4486 23.0869L11.2532 24.2823L12.5477 25.5768L13.7431 24.3814C15.2829 22.8416 17.9146 23.9329 17.9146 26.1095V27.8H19.7454V26.1095C19.7454 23.9329 22.3771 22.8416 23.9169 24.3814L25.1123 25.5768L26.4068 24.2823L25.2117 23.0871C25.2116 23.0871 25.2117 23.0872 25.2117 23.0871C23.6716 21.5475 24.7632 18.9154 26.9395 18.9154H28.63V17.0846H26.9395C24.7623 17.0846 23.6725 14.4521 25.2114 12.9131L26.4068 11.7177L25.1123 10.4232L23.9167 11.6188ZM26.06 22.2384L27.5712 23.7496C27.8652 24.0437 27.8652 24.5209 27.5712 24.8149L25.6449 26.7412C25.3509 27.0352 24.8737 27.0352 24.5796 26.7412L23.0684 25.23C22.2848 24.4464 20.9454 25.0015 20.9454 26.1095V28.2465C20.9454 28.6628 20.6082 29 20.1923 29H17.4681C17.0518 29 16.7146 28.6628 16.7146 28.2465V26.1095C16.7146 25.0015 15.3752 24.4464 14.5916 25.23L13.0804 26.7412C12.7863 27.0352 12.3091 27.0352 12.0151 26.7412L10.0888 24.8149C9.79479 24.5209 9.79479 24.0441 10.0888 23.7496L11.6 22.2384C12.3832 21.4553 11.8285 20.1154 10.7205 20.1154H8.58352C8.16721 20.1154 7.83002 19.7782 7.83002 19.3623V16.6381C7.83002 16.2218 8.16721 15.8846 8.58352 15.8846H10.7205C11.8285 15.8846 12.3836 14.5447 11.6 13.7616L10.0888 12.2504C9.79479 11.9563 9.79479 11.4791 10.0888 11.1851L12.0151 9.25881C12.3091 8.96477 12.7863 8.96477 13.0804 9.25881L14.5916 10.7705C15.3752 11.5536 16.7146 10.9989 16.7146 9.89088V7.7535C16.7146 7.33719 17.0518 7 17.4677 7H20.1919C20.6082 7 20.9454 7.33719 20.9454 7.7535V9.89046C20.9454 10.9985 22.2848 11.5532 23.0684 10.77L24.5796 9.25881C24.8737 8.96477 25.3509 8.96477 25.6449 9.25881L27.5712 11.1851C27.8652 11.4791 27.8652 11.9563 27.5712 12.2504L26.06 13.7616C25.2768 14.5447 25.8315 15.8846 26.9395 15.8846H29.0765C29.4928 15.8846 29.83 16.2218 29.83 16.6377V19.3619C29.83 19.7782 29.4928 20.1154 29.0765 20.1154H26.9395C25.8315 20.1154 25.2764 21.4553 26.06 22.2384ZM12.2319 25.8927C12.2317 25.8928 12.232 25.8925 12.2319 25.8927V25.8927ZM18.83 22.5846C16.2981 22.5846 14.2454 20.5319 14.2454 18C14.2454 15.4681 16.2981 13.4154 18.83 13.4154C21.3619 13.4154 23.4146 15.4681 23.4146 18C23.4146 20.5319 21.3619 22.5846 18.83 22.5846ZM15.4454 18C15.4454 19.8692 16.9608 21.3846 18.83 21.3846C20.6992 21.3846 22.2146 19.8692 22.2146 18C22.2146 16.1308 20.6992 14.6154 18.83 14.6154C16.9608 14.6154 15.4454 16.1308 15.4454 18Z" fill="#ffffff"/>
</g>
</g>
<defs>
<clipPath id="clip0_2732_64">
<rect width="36" height="36" fill="white" transform="translate(0.830017)"/>
</clipPath>
<clipPath id="clip1_2732_64">
<rect width="36" height="36" fill="white" transform="translate(0.830017)"/>
</clipPath>
</defs>
</svg>
