<svg width="36" height="36" viewBox="0 0 36 36" fill="none" xmlns="http://www.w3.org/2000/svg">
<g clip-path="url(#clip0_2732_41)">
<g clip-path="url(#clip1_2732_41)">
<mask id="mask0_2732_41" style="mask-type:luminance" maskUnits="userSpaceOnUse" x="0" y="0" width="36" height="36">
<path d="M36 0H0V36H36V0Z" fill="white"/>
</mask>
<g mask="url(#mask0_2732_41)">
<path d="M18 36C27.9411 36 36 27.9411 36 18C36 8.05887 27.9411 0 18 0C8.05887 0 0 8.05887 0 18C0 27.9411 8.05887 36 18 36Z" fill="#12619a"/>
<mask id="mask1_2732_41" style="mask-type:luminance" maskUnits="userSpaceOnUse" x="4" y="5" width="26" height="26">
<path d="M30 5H4V31H30V5Z" fill="white"/>
</mask>
<g mask="url(#mask1_2732_41)">
<path fill-rule="evenodd" clip-rule="evenodd" d="M17.5 25.3333V27.4871C15.2533 27.3706 13.213 26.4735 11.6453 25.0618L12.8536 23.8536L12.1465 23.1465L10.9382 24.3547C9.52653 22.787 8.62943 20.7467 8.51293 18.5H10.6667V17.5H8.51293C8.62943 15.2533 9.52653 13.213 10.9382 11.6453L12.1465 12.8535L12.8536 12.1464L11.6453 10.9382C13.213 9.52652 15.2533 8.62943 17.5 8.51293V10.6667H18.5V8.51293C20.9002 8.63739 23.0648 9.65275 24.6693 11.2347L23.7576 12.1464L24.4647 12.8535L25.3444 11.9738C26.5926 13.4933 27.3785 15.4071 27.4871 17.5H25.3333V18.5H27.4871C27.3706 20.7467 26.4735 22.787 25.0618 24.3547L23.8535 23.1465L23.1464 23.8536L24.3547 25.0618C22.787 26.4735 20.7467 27.3706 18.5 27.4871V25.3333H17.5ZM18 29C24.0751 29 29 24.0751 29 18C29 11.9249 24.0751 7 18 7C11.9249 7 7 11.9249 7 18C7 24.0751 11.9249 29 18 29ZM22.6111 18C22.6111 20.5466 20.5467 22.6111 18 22.6111C15.4534 22.6111 13.3889 20.5466 13.3889 18C13.3889 15.4534 15.4534 13.3889 18 13.3889C20.5467 13.3889 22.6111 15.4534 22.6111 18ZM24.1111 18C24.1111 21.3751 21.3751 24.1111 18 24.1111C14.625 24.1111 11.8889 21.3751 11.8889 18C11.8889 14.6249 14.625 11.8889 18 11.8889C21.3751 11.8889 24.1111 14.6249 24.1111 18Z" fill="#ffffff"/>
</g>
</g>
</g>
</g>
<defs>
<clipPath id="clip0_2732_41">
<rect width="36" height="36" fill="white"/>
</clipPath>
<clipPath id="clip1_2732_41">
<rect width="36" height="36" fill="white"/>
</clipPath>
</defs>
</svg>
