<svg width="60" height="60" viewBox="0 0 60 60" fill="none" xmlns="http://www.w3.org/2000/svg">
<g clip-path="url(#clip0_451_2994)">
<path d="M48.9433 9.59327C48.9053 8.98165 48.8673 8.44648 48.6774 7.94954C48.3736 7.33792 47.7279 6.91743 46.3226 6.76453C39.8278 6.11468 36.7893 6 30.0666 6C23.3059 6 20.3434 6.11468 13.7726 6.76453C12.3293 6.91743 11.7216 7.33792 11.4178 7.98777C11.2279 8.44648 11.1899 8.98165 11.1519 9.59327C10.8101 17.0474 11 37.3073 11.9875 48.6988C12.1014 49.9985 12.1774 51.4128 12.3673 52.5596C12.6711 54.318 13.3928 54.815 14.7601 55.0826C17.1909 55.5795 21.9006 56 30.0286 56C38.1566 56 42.9043 55.6177 45.2971 55.0826C46.6644 54.7768 47.424 54.2798 47.6899 52.5596C47.8798 51.4128 47.9558 49.9985 48.0697 48.6988C49.0572 37.3073 49.2851 17.0474 48.9433 9.59327ZM12.8611 10.396C12.899 9.51682 12.7471 8.86697 13.5067 8.3318L24.2175 10.2813C24.5973 10.052 29.9147 10.052 30.0666 10.052C30.2185 10.052 35.5359 10.052 35.9157 10.2813L46.5125 8.3318C47.2341 8.82875 47.1202 9.47859 47.1582 10.396C47.2721 12.6896 47.3101 16.2829 47.3101 20.4495V20.526L38.8023 21.1376C36.7133 21.3287 36.4474 21.8639 36.4474 22.8578C36.4474 22.8578 36.3335 29.5474 36.2955 31.9174C36.2196 35.2813 35.9157 40.2508 35.9157 40.4037C35.8777 41.2064 35.346 41.7798 34.5864 41.8563C34.5864 41.8563 31.8897 41.9709 30.0286 41.9327H29.9906C28.1295 41.9327 25.4329 41.8563 25.4329 41.8563C24.6732 41.7798 24.1415 41.2064 24.1035 40.4037C24.1035 40.2508 23.7997 35.2431 23.7237 31.9174C23.6477 29.5474 23.5718 22.8578 23.5718 22.8578C23.5718 21.8639 23.3059 21.3287 21.2169 21.1376L12.7091 20.4495C12.7091 16.2829 12.7471 12.7278 12.8611 10.396ZM30.0286 43.3853H30.0666L34.2825 43.3471C37.5869 43.3853 37.245 43.0795 37.7008 40.1743C37.8148 39.448 39.334 23.0107 39.334 23.0107C39.372 22.6284 39.5999 22.4755 39.9037 22.4373L47.0822 21.4434C47.2341 21.4434 47.3481 21.5199 47.3101 21.6728C47.3101 21.6728 46.7404 48.8899 45.9807 52.2156C45.8288 52.9419 45.6389 53.0948 45.0312 53.2477C45.0312 53.2477 41.423 54.1269 30.0286 54.1269C18.6722 54.1269 15.026 53.2477 15.026 53.2477C14.4183 53.0948 14.2284 52.9419 14.0765 52.2156C13.2789 48.9281 12.7091 21.6728 12.7091 21.6728C12.7091 21.5199 12.8231 21.4434 12.937 21.4434L20.1155 22.3991C20.4193 22.4373 20.6092 22.5902 20.6852 22.9725C20.6852 22.9725 22.2045 39.4098 22.3184 40.1361C22.7742 43.0413 22.4323 43.3471 25.7367 43.3089L29.9906 43.3853H30.0286Z" fill="#222222"/>
<path d="M26.8762 46.4816C26.8762 46.4434 26.8382 46.4434 26.8002 46.4434H25.6608C25.6228 46.4434 25.6228 46.4434 25.5848 46.4816L23.192 50.0749C23.192 50.1131 23.192 50.1513 23.23 50.1513H24.3694C24.4074 50.1513 24.4074 50.1513 24.4454 50.1131L25.0531 49.1957C25.0911 49.1574 25.1291 49.1192 25.167 49.1192H27.332C27.37 49.1192 27.4459 49.1574 27.4459 49.1957L28.0536 50.1131C28.0536 50.1513 28.0916 50.1513 28.1296 50.1513H29.269C29.307 50.1513 29.307 50.1131 29.307 50.0749L26.8762 46.4816ZM26.8382 48.5076H25.5848C25.5089 48.5076 25.4709 48.4311 25.5089 48.3929L26.1166 47.4755C26.1546 47.4372 26.2305 47.4372 26.2305 47.4755L26.8382 48.3929C26.9522 48.4311 26.9142 48.5076 26.8382 48.5076Z" fill="#222222"/>
<path d="M23.116 46.4434H17.3429C17.3049 46.4434 17.3049 46.4816 17.3049 46.5198L17.6087 46.9785C17.6467 47.0168 17.6847 47.055 17.7227 47.055H19.5837C19.6217 47.055 19.6597 47.0932 19.6597 47.1314V50.1131C19.6597 50.1513 19.6977 50.1513 19.6977 50.1513H20.7232C20.7612 50.1513 20.7612 50.1131 20.7612 50.1131V47.1314C20.7612 47.0932 20.7991 47.055 20.8371 47.055H22.6982C22.7362 47.055 22.8122 47.0168 22.8122 46.9785L23.116 46.5198C23.192 46.4816 23.154 46.4434 23.116 46.4434Z" fill="#222222"/>
<path d="M36.0297 46.4434H35.0042C34.9662 46.4434 34.9662 46.4816 34.9662 46.4816V49.081C34.9662 49.1192 34.9282 49.1192 34.8902 49.1192L31.5479 46.4816C31.5099 46.4434 31.4719 46.4434 31.4339 46.4434H30.4464C30.4084 46.4434 30.4084 46.4816 30.4084 46.4816V50.0749C30.4084 50.1131 30.4464 50.1131 30.4464 50.1131H31.5099C31.5479 50.1131 31.5479 50.0749 31.5479 50.0749V47.4755C31.5479 47.4372 31.5859 47.4372 31.6238 47.4372L34.9662 50.0749C35.0042 50.1131 35.0422 50.1131 35.0801 50.1131H36.0677C36.1056 50.1131 36.1056 50.0749 36.1056 50.0749V46.4816C36.1056 46.4434 36.0677 46.4434 36.0297 46.4434Z" fill="#222222"/>
<path d="M43.0182 50.0749L40.5874 48.0871C40.5495 48.0489 40.5495 48.0489 40.5874 48.0106L42.9803 46.4816C43.0182 46.4816 42.9803 46.4434 42.9803 46.4434H41.7649C41.7269 46.4434 41.6889 46.4434 41.6509 46.4816L39.0302 48.1253C38.9922 48.1253 38.9542 48.1253 38.9542 48.0871V46.4816C38.9542 46.4434 38.9163 46.4434 38.9163 46.4434H37.8908C37.8528 46.4434 37.8528 46.4816 37.8528 46.4816V50.0749C37.8528 50.1131 37.8908 50.1131 37.8908 50.1131H38.9163C38.9542 50.1131 38.9542 50.0749 38.9542 50.0749V49.081C38.9542 49.0427 38.9542 49.0427 38.9922 49.0045L39.8278 48.4694C39.8658 48.4694 39.9038 48.4694 39.9418 48.4694L41.8408 50.0366C41.8788 50.0749 41.9168 50.0749 41.9927 50.0749H42.9803C43.0182 50.1131 43.0182 50.1131 43.0182 50.0749Z" fill="#222222"/>
</g>
<defs>
<clipPath id="clip0_451_2994">
<rect width="38.0952" height="50" fill="#222222" transform="translate(11 6)"/>
</clipPath>
</defs>
</svg>
